# xmcd
#
# Track frame offsets: 
#        150
#        15585
#        30685
#        44462
#        60385
#        75371
#        91141
#        104888
#        118790
#        131781
#        147262
#        161495
#        177066
#        191351
#        205954
#        219988
#        246116
#        265174
#        286580
#
# Disc length: 4126 seconds
#
# Revision: 0
# Processed by: cddbd v1.5.2PL0 Copyright (c) Steve Scherf et al.
# Submitted via: ExactAudioCopyFreeDBPlugin 1.0
#
DISCID=04101c13
DTITLE=Rahul Dev Burman - Phire Eso Anuradha
DYEAR=1998
DGENRE=Bengali Modern
TTITLE0=Mone Pore Rubi Roy
TTITLE1=Phire Eso Anuradha
TTITLE2=Swapno Aamar Hariye Geche
TTITLE3=Ke Kaande Kaande Re
TTITLE4=Ele Naa Tumi Je
TTITLE5=Jaay Re Jaay Re Bela Je Jaay Re
TTITLE6=Deke Deke Kata
TTITLE7=Jete Jete Pathe Holo Deri
TTITLE8=Tomate Aamate Dekha Hoyechhilo
TTITLE9=Madhumash Jaay
TTITLE10=Kaal Kokhon Aashbe
TTITLE11=Sajani Go Premer Kotha
TTITLE12=Shono Mon Boli Tomay
TTITLE13=Bolo Ki Aache Go
TTITLE14=Darjeeling Jatra
TTITLE15=Nadir Paare Utchhe Dhnowa
TTITLE16=Shono Ei To Somoy
TTITLE17=Keu Jaane Na Tumi Je Aamar
TTITLE18=Ki Hobe Aar Purono Diner Kotha
EXTD=
EXTT0=
EXTT1=
EXTT2=
EXTT3=
EXTT4=
EXTT5=
EXTT6=
EXTT7=
EXTT8=
EXTT9=
EXTT10=
EXTT11=
EXTT12=
EXTT13=
EXTT14=
EXTT15=
EXTT16=
EXTT17=
EXTT18=
PLAYORDER=
